<svg width="70" height="70" viewBox="0 0 70 70" fill="none" xmlns="http://www.w3.org/2000/svg">
<g filter="url(#filter0_i_75_60)">
<g clip-path="url(#clip0_75_60)">
<path d="M58.3337 0H14.5837C12.2631 0 10.0375 0.921872 8.39656 2.56282C6.75561 4.20376 5.83374 6.42936 5.83374 8.75V61.25C5.83374 63.5706 6.75561 65.7962 8.39656 67.4372C10.0375 69.0781 12.2631 70 14.5837 70H64.1671V5.83333C64.1671 4.28624 63.5525 2.80251 62.4585 1.70854C61.3646 0.614582 59.8808 0 58.3337 0V0ZM58.3337 52.5H23.3337V5.83333H58.3337V52.5ZM14.5837 5.83333H17.5004V52.5H14.6333C13.6205 52.5088 12.6168 52.6933 11.6671 53.0454V8.75C11.6671 7.97645 11.9744 7.23459 12.5213 6.68761C13.0683 6.14062 13.8102 5.83333 14.5837 5.83333ZM14.5837 64.1667C13.8142 64.1667 13.0759 63.8626 12.5296 63.3207C11.9832 62.7787 11.6732 62.0428 11.6671 61.2733H11.7108C11.7077 60.8884 11.7809 60.5066 11.9261 60.15C12.0713 59.7934 12.2857 59.4692 12.5568 59.1958C12.8279 58.9225 13.1505 58.7056 13.5059 58.5576C13.8613 58.4095 14.2425 58.3333 14.6275 58.3333H58.3337V64.1667H14.5837Z" fill="#1B8BA9"/>
</g>
</g>
<defs>
<filter id="filter0_i_75_60" x="0" y="0" width="70" height="74" filterUnits="userSpaceOnUse" color-interpolation-filters="sRGB">
<feFlood flood-opacity="0" result="BackgroundImageFix"/>
<feBlend mode="normal" in="SourceGraphic" in2="BackgroundImageFix" result="shape"/>
<feColorMatrix in="SourceAlpha" type="matrix" values="0 0 0 0 0 0 0 0 0 0 0 0 0 0 0 0 0 0 127 0" result="hardAlpha"/>
<feOffset dy="4"/>
<feGaussianBlur stdDeviation="2"/>
<feComposite in2="hardAlpha" operator="arithmetic" k2="-1" k3="1"/>
<feColorMatrix type="matrix" values="0 0 0 0 0 0 0 0 0 0 0 0 0 0 0 0 0 0 0.25 0"/>
<feBlend mode="normal" in2="shape" result="effect1_innerShadow_75_60"/>
</filter>
<clipPath id="clip0_75_60">
<path d="M0 4C0 1.79086 1.79086 0 4 0H66C68.2091 0 70 1.79086 70 4V66C70 68.2091 68.2091 70 66 70H4C1.79086 70 0 68.2091 0 66V4Z" fill="white"/>
</clipPath>
</defs>
</svg>
