<?xml version="1.0" encoding="utf-8"?>
<!-- Generator: Adobe Illustrator 24.1.2, SVG Export Plug-In . SVG Version: 6.00 Build 0)  -->
<svg version="1.1" id="Camada_1" xmlns="http://www.w3.org/2000/svg" xmlns:xlink="http://www.w3.org/1999/xlink" x="0px" y="0px"
	 viewBox="0 0 100 100" enable-background="new 0 0 100 100" xml:space="preserve">
<g>
	<defs>
		<rect id="SVGID_1_" width="100" height="100"/>
	</defs>
	<clipPath id="SVGID_2_">
		<use xlink:href="#SVGID_1_"  overflow="visible"/>
	</clipPath>
	<g clip-path="url(#SVGID_2_)">
		<path fill="#1C8CA6" d="M83.75,33.33c0.01-5.37-1.28-10.66-3.75-15.43c-2.47-4.76-6.06-8.86-10.46-11.94
			c-4.4-3.08-9.47-5.05-14.8-5.75S44,0.12,38.96,1.97c-5.04,1.85-9.56,4.88-13.18,8.85c-3.62,3.97-6.22,8.75-7.59,13.94
			c-1.37,5.19-1.47,10.64-0.28,15.87c1.19,5.24,3.62,10.11,7.09,14.2v33.28c-0.01,2.24,0.62,4.43,1.81,6.33
			c1.19,1.9,2.89,3.42,4.91,4.39c2.02,0.97,4.27,1.35,6.49,1.09c2.22-0.26,4.33-1.14,6.08-2.54L50,92.8l5.7,4.58
			c1.75,1.4,3.85,2.27,6.08,2.53c2.22,0.25,4.47-0.13,6.49-1.1c2.02-0.97,3.72-2.49,4.91-4.38c1.19-1.89,1.82-4.09,1.82-6.32V55.78
			C80.63,49.66,83.75,41.65,83.75,33.33L83.75,33.33z M50.42,12.5c4.12,0,8.15,1.22,11.57,3.51c3.43,2.29,6.1,5.54,7.67,9.35
			c1.58,3.81,1.99,8,1.19,12.04c-0.8,4.04-2.79,7.75-5.7,10.67c-2.91,2.91-6.63,4.9-10.67,5.7c-4.04,0.8-8.23,0.39-12.04-1.19
			c-3.81-1.58-7.06-4.25-9.35-7.67c-2.29-3.43-3.51-7.45-3.51-11.57c0.01-5.52,2.2-10.82,6.11-14.72
			C39.6,14.7,44.89,12.51,50.42,12.5L50.42,12.5z M55.46,81.2c-1.55-1.25-3.48-1.94-5.47-1.94c-1.99,0-3.92,0.68-5.47,1.94
			l-7.02,5.62V64.05c7.97,3.37,16.95,3.48,25,0.32v22.44L55.46,81.2z"/>
	</g>
</g>
</svg>
