<?xml version="1.0" encoding="utf-8"?>
<!-- Generator: Adobe Illustrator 24.1.2, SVG Export Plug-In . SVG Version: 6.00 Build 0)  -->
<svg version="1.1" id="Camada_1" xmlns="http://www.w3.org/2000/svg" xmlns:xlink="http://www.w3.org/1999/xlink" x="0px" y="0px"
	 viewBox="0 0 100 100" style="enable-background:new 0 0 100 100;" xml:space="preserve">
<style type="text/css">
	.st0{clip-path:url(#SVGID_2_);}
	.st1{fill:#1B8BA9;}
</style>
<g>
	<g>
		<defs>
			<path id="SVGID_1_" d="M0,5.71C0,2.56,2.56,0,5.71,0h88.57C97.44,0,100,2.56,100,5.71v88.57c0,3.16-2.56,5.71-5.71,5.71H5.71
				C2.56,100,0,97.44,0,94.29V5.71z"/>
		</defs>
		<clipPath id="SVGID_2_">
			<use xlink:href="#SVGID_1_"  style="overflow:visible;"/>
		</clipPath>
		<g class="st0">
			<path class="st1" d="M8.33,87.4V-0.1H0v87.5c0,3.32,1.32,6.49,3.66,8.84c2.34,2.34,5.52,3.66,8.84,3.66H100v-8.33H12.5
				c-1.11,0-2.16-0.44-2.95-1.22C8.77,89.57,8.33,88.51,8.33,87.4z"/>
			<path class="st1" d="M93.75,16.57H70.83L82.47,28.2L64.58,46.09l-8.33-8.33L26.17,67.84l5.91,5.91l24.19-24.17l8.33,8.33
				l23.78-23.78L100,45.73V22.82c0-1.66-0.66-3.25-1.83-4.42C97,17.23,95.41,16.57,93.75,16.57z"/>
		</g>
	</g>
</g>
</svg>
