<?xml version="1.0" encoding="utf-8"?>
<!-- Generator: Adobe Illustrator 24.1.2, SVG Export Plug-In . SVG Version: 6.00 Build 0)  -->
<svg version="1.1" id="Camada_1" xmlns="http://www.w3.org/2000/svg" xmlns:xlink="http://www.w3.org/1999/xlink" x="0px" y="0px"
	 viewBox="0 0 100 100" style="enable-background:new 0 0 100 100;" xml:space="preserve">
<style type="text/css">
	.st0{clip-path:url(#SVGID_2_);}
	.st1{fill:#FFFFFF;}
</style>
<g>
	<defs>
		<rect id="SVGID_1_" width="100" height="100"/>
	</defs>
	<clipPath id="SVGID_2_">
		<use xlink:href="#SVGID_1_"  style="overflow:visible;"/>
	</clipPath>
	<g class="st0">
		<path class="st1" d="M95.83,45.83c-1.11,0-2.17-0.44-2.95-1.22c-0.78-0.78-1.22-1.84-1.22-2.95c-0.01-8.84-3.52-17.31-9.77-23.56
			c-6.25-6.25-14.72-9.76-23.56-9.77c-1.11,0-2.17-0.44-2.95-1.22c-0.78-0.78-1.22-1.84-1.22-2.95c0-1.11,0.44-2.16,1.22-2.95
			C56.17,0.44,57.23,0,58.33,0C69.38,0.01,79.97,4.4,87.78,12.22c7.81,7.81,12.21,18.4,12.22,29.45c0,1.11-0.44,2.17-1.22,2.95
			C98,45.39,96.94,45.83,95.83,45.83z M83.33,41.66c0-6.63-2.63-12.99-7.32-17.68c-4.69-4.69-11.05-7.32-17.68-7.32
			c-1.11,0-2.17,0.44-2.95,1.22c-0.78,0.78-1.22,1.84-1.22,2.95c0,1.11,0.44,2.16,1.22,2.95c0.78,0.78,1.84,1.22,2.95,1.22
			c4.42,0,8.66,1.76,11.78,4.88C73.24,33.01,75,37.24,75,41.66c0,1.11,0.44,2.17,1.22,2.95c0.78,0.78,1.84,1.22,2.95,1.22
			c1.11,0,2.16-0.44,2.95-1.22C82.89,43.83,83.33,42.77,83.33,41.66z M92.43,92.35l3.79-4.37c2.41-2.42,3.77-5.7,3.77-9.12
			c0-3.42-1.35-6.7-3.77-9.12c-0.13-0.13-10.15-7.84-10.15-7.84c-2.41-2.29-5.6-3.57-8.92-3.56c-3.32,0-6.51,1.29-8.91,3.59
			l-7.94,6.69C53.81,65.93,47.92,62,42.96,57.03C38,52.06,34.08,46.17,31.4,39.68l6.67-7.92c2.3-2.4,3.58-5.59,3.59-8.91
			c0.01-3.32-1.27-6.52-3.56-8.93c0,0-7.72-10.01-7.85-10.14c-2.38-2.39-5.6-3.75-8.97-3.79c-3.37-0.04-6.62,1.26-9.05,3.6
			L7.43,7.76C-20.87,40.6,40.08,101.09,74.01,100c3.43,0.02,6.82-0.65,9.98-1.96C87.16,96.72,90.03,94.79,92.43,92.35z"/>
	</g>
</g>
</svg>
