<?xml version="1.0" encoding="utf-8"?>
<!-- Generator: Adobe Illustrator 24.1.2, SVG Export Plug-In . SVG Version: 6.00 Build 0)  -->
<svg version="1.1" id="Camada_1" xmlns="http://www.w3.org/2000/svg" xmlns:xlink="http://www.w3.org/1999/xlink" x="0px" y="0px"
	 viewBox="0 0 100 100" enable-background="new 0 0 100 100" xml:space="preserve">
<g>
	<defs>
		<rect id="SVGID_1_" width="100" height="100"/>
	</defs>
	<clipPath id="SVGID_2_">
		<use xlink:href="#SVGID_1_"  overflow="visible"/>
	</clipPath>
	<g clip-path="url(#SVGID_2_)">
		<path fill="#000" d="M47.72,58.41c-17.76,1.6-31.29,16.61-31.05,34.44v0.9c0,3.45,2.8,6.25,6.25,6.25s6.25-2.8,6.25-6.25V92.6
			c-0.19-10.95,7.89-20.28,18.75-21.67c11.46-1.14,21.68,7.23,22.81,18.7c0.07,0.68,0.1,1.36,0.1,2.04v2.08
			c0,3.45,2.8,6.25,6.25,6.25c3.45,0,6.25-2.8,6.25-6.25v-2.08c-0.02-18.43-14.98-33.35-33.41-33.33
			C49.19,58.34,48.45,58.36,47.72,58.41z"/>
		<path fill="#000" d="M50,50c13.81,0,25-11.19,25-25S63.81,0,50,0C36.19,0,25,11.19,25,25C25.02,38.8,36.2,49.99,50,50z
			 M50,12.5c6.9,0,12.5,5.6,12.5,12.5S56.9,37.5,50,37.5c-6.9,0-12.5-5.6-12.5-12.5S43.1,12.5,50,12.5z"/>
	</g>
</g>
</svg>
