<?xml version="1.0" encoding="utf-8"?>
<!-- Generator: Adobe Illustrator 24.1.2, SVG Export Plug-In . SVG Version: 6.00 Build 0)  -->
<svg version="1.1" id="Camada_1" xmlns="http://www.w3.org/2000/svg" xmlns:xlink="http://www.w3.org/1999/xlink" x="0px" y="0px"
	 viewBox="0 0 100 100" style="enable-background:new 0 0 100 100;" xml:space="preserve">
<style type="text/css">
	.st0{clip-path:url(#SVGID_2_);}
	.st1{fill:#1C8CA6;}
</style>
<g>
	<defs>
		<rect id="SVGID_1_" width="100" height="100"/>
	</defs>
	<clipPath id="SVGID_2_">
		<use xlink:href="#SVGID_1_"  style="overflow:visible;"/>
	</clipPath>
	<g class="st0">
		<path class="st1" d="M96.45,23.75L84.5,7.61c-1.68-2.35-3.91-4.27-6.48-5.59C75.45,0.7,72.6,0,69.7,0H30.3
			c-2.87,0-5.7,0.68-8.26,1.98c-2.56,1.3-4.77,3.2-6.45,5.52L3.33,23.84c-2.27,3.18-3.44,7.01-3.35,10.92
			c0.09,3.9,1.44,7.68,3.84,10.75l35.05,49.12c1.33,1.68,3.02,3.04,4.95,3.97c1.93,0.93,4.04,1.41,6.18,1.41
			c2.19-0.01,4.35-0.52,6.31-1.49c1.96-0.98,3.67-2.39,5-4.13L95.89,46c2.54-3.12,3.98-7,4.08-11.03
			C100.07,30.94,98.83,27,96.45,23.75z M13.45,31.2l12.22-16.32c0.53-0.74,1.22-1.33,2.03-1.75c0.8-0.41,1.7-0.63,2.6-0.63h9.96
			l-6.17,21.59l0.35,1.33h31.11l0.35-1.33L59.74,12.5h9.96c0.92,0.01,1.83,0.23,2.64,0.66c0.82,0.43,1.52,1.05,2.04,1.8l12,16.21
			c0.43,0.61,0.74,1.3,0.89,2.03c0.16,0.73,0.17,1.48,0.02,2.22H65.55L52.14,85.73l-0.8,1.13c-0.16,0.2-0.36,0.37-0.59,0.48
			c-0.23,0.11-0.49,0.17-0.74,0.16c-0.42,0.02-0.83-0.12-1.14-0.39l-1-1.4L34.44,35.42H12.67c-0.16-0.72-0.18-1.46-0.05-2.19
			C12.76,32.5,13.04,31.81,13.45,31.2z"/>
	</g>
</g>
</svg>
