<?xml version="1.0" encoding="utf-8"?>
<!-- Generator: Adobe Illustrator 24.1.2, SVG Export Plug-In . SVG Version: 6.00 Build 0)  -->
<svg version="1.1" id="Camada_1" xmlns="http://www.w3.org/2000/svg" xmlns:xlink="http://www.w3.org/1999/xlink" x="0px" y="0px"
	 viewBox="0 0 100 100" enable-background="new 0 0 100 100" xml:space="preserve">
<g>
	<defs>
		<rect id="SVGID_1_" width="100" height="100"/>
	</defs>
	<clipPath id="SVGID_2_">
		<use xlink:href="#SVGID_1_"  overflow="visible"/>
	</clipPath>
	<g clip-path="url(#SVGID_2_)">
		<path fill="#1C8CA6" d="M77.08,0H22.92c-6.08,0.01-11.9,2.42-16.2,6.72c-4.3,4.3-6.71,10.12-6.72,16.2v54.17
			c0.01,6.08,2.42,11.9,6.72,16.2c4.3,4.3,10.12,6.71,16.2,6.72h54.17c6.08-0.01,11.9-2.42,16.2-6.72c4.3-4.3,6.71-10.12,6.72-16.2
			V22.92c-0.01-6.08-2.42-11.9-6.72-16.2C88.98,2.42,83.16,0.01,77.08,0L77.08,0z M87.5,77.08c0,2.76-1.1,5.41-3.05,7.37
			c-1.95,1.95-4.6,3.05-7.37,3.05H75v-4.17c0-6.63-2.63-12.99-7.32-17.68S56.63,58.33,50,58.33s-12.99,2.63-17.68,7.32
			S25,76.7,25,83.33v4.17h-2.08c-2.76,0-5.41-1.1-7.37-3.05c-1.95-1.95-3.05-4.6-3.05-7.37V22.92c0-2.76,1.1-5.41,3.05-7.37
			c1.95-1.95,4.6-3.05,7.37-3.05h54.17c2.76,0,5.41,1.1,7.37,3.05c1.95,1.95,3.05,4.6,3.05,7.37V77.08z"/>
		<path fill="#1C8CA6" d="M50,50c8.05,0,14.58-6.53,14.58-14.58S58.05,20.83,50,20.83s-14.58,6.53-14.58,14.58S41.95,50,50,50z"/>
	</g>
</g>
</svg>
