<?xml version="1.0" encoding="utf-8"?>
<!-- Generator: Adobe Illustrator 24.1.2, SVG Export Plug-In . SVG Version: 6.00 Build 0)  -->
<svg version="1.1" id="Camada_1" xmlns="http://www.w3.org/2000/svg" xmlns:xlink="http://www.w3.org/1999/xlink" x="0px" y="0px"
	 viewBox="0 0 100 100" style="enable-background:new 0 0 100 100;" xml:space="preserve">
<style type="text/css">
	.st0{fill:#1C8CA6;}
</style>
<path class="st0" d="M75.6,39.58c1.66,0,3.25-0.66,4.42-1.83c1.17-1.17,1.83-2.76,1.83-4.42v-2.86c-0.01-5.87-2.34-11.5-6.49-15.65
	c-4.15-4.15-9.78-6.48-15.65-6.49h-4.95V6.25c0-1.66-0.66-3.25-1.83-4.42C51.77,0.66,50.18,0,48.52,0c-1.66,0-3.25,0.66-4.42,1.83
	C42.93,3,42.27,4.59,42.27,6.25v2.08h-4.95c-5.31-0.01-10.45,1.9-14.48,5.37c-4.03,3.47-6.67,8.27-7.45,13.53
	c-0.78,5.26,0.36,10.62,3.21,15.11c2.85,4.49,7.21,7.8,12.3,9.33l11.37,3.11v24.39h-4.95c-2.56,0-5-1.02-6.81-2.83
	c-1.81-1.81-2.82-4.26-2.83-6.81v-2.86c0-1.66-0.66-3.25-1.83-4.42c-1.17-1.17-2.76-1.83-4.42-1.83c-1.66,0-3.25,0.66-4.42,1.83
	c-1.17,1.17-1.83,2.76-1.83,4.42v2.86c0.01,5.87,2.34,11.5,6.49,15.65c4.15,4.15,9.78,6.48,15.65,6.49h4.95v2.08
	c0,1.66,0.66,3.25,1.83,4.42c1.17,1.17,2.76,1.83,4.42,1.83c1.66,0,3.25-0.66,4.42-1.83c1.17-1.17,1.83-2.76,1.83-4.42v-2.08h4.95
	c5.31,0.01,10.45-1.9,14.48-5.37c4.03-3.47,6.67-8.27,7.45-13.53c0.78-5.26-0.36-10.62-3.21-15.11c-2.85-4.49-7.21-7.8-12.3-9.33
	l-11.37-3.1v-24.4h4.95c2.56,0,5,1.02,6.81,2.83c1.81,1.81,2.82,4.26,2.83,6.81v2.86c0,1.66,0.66,3.25,1.83,4.42
	C72.35,38.92,73.94,39.58,75.6,39.58z M62.61,60.33c2.2,0.69,4.08,2.15,5.29,4.11c1.22,1.96,1.69,4.29,1.34,6.56
	c-0.35,2.28-1.51,4.35-3.26,5.85c-1.75,1.5-3.98,2.32-6.29,2.31h-4.92V58.19L62.61,60.33z M42.27,41.81l-7.84-2.14
	c-2.2-0.69-4.07-2.15-5.29-4.1c-1.22-1.96-1.69-4.28-1.34-6.56c0.35-2.28,1.5-4.35,3.25-5.85c1.75-1.5,3.97-2.32,6.28-2.32h4.95
	V41.81z"/>
</svg>
