<?xml version="1.0" encoding="utf-8"?>
<!-- Generator: Adobe Illustrator 24.1.2, SVG Export Plug-In . SVG Version: 6.00 Build 0)  -->
<svg version="1.1" id="Camada_1" xmlns="http://www.w3.org/2000/svg" xmlns:xlink="http://www.w3.org/1999/xlink" x="0px" y="0px"
	 viewBox="0 0 100 100" style="enable-background:new 0 0 100 100;" xml:space="preserve">
<style type="text/css">
	.st0{clip-path:url(#SVGID_2_);}
	.st1{fill:#1C8CA6;}
</style>
<g>
	<defs>
		<rect id="SVGID_1_" width="100" height="100"/>
	</defs>
	<clipPath id="SVGID_2_">
		<use xlink:href="#SVGID_1_"  style="overflow:visible;"/>
	</clipPath>
	<g class="st0">
		<path class="st1" d="M96.14,16.01c-1.14-0.47-2.4-0.6-3.61-0.36c-1.21,0.24-2.33,0.84-3.2,1.71L73.87,32.83L54.42,13.38
			c-0.58-0.58-1.27-1.04-2.03-1.36c-0.76-0.31-1.57-0.48-2.39-0.48c-0.82,0-1.63,0.16-2.39,0.48c-0.76,0.31-1.45,0.78-2.03,1.36
			L26.13,32.83L10.67,17.36c-0.87-0.87-1.99-1.47-3.2-1.71C6.26,15.41,5,15.53,3.86,16.01c-1.14,0.47-2.12,1.27-2.81,2.3
			C0.37,19.34,0,20.55,0,21.78v46.97c0.01,6.08,2.42,11.9,6.72,16.2s10.12,6.71,16.2,6.72h54.17c6.08-0.01,11.9-2.42,16.2-6.72
			c4.3-4.3,6.71-10.12,6.72-16.2V21.78c0-1.24-0.37-2.44-1.05-3.47S97.28,16.48,96.14,16.01z M87.5,68.75c0,2.76-1.1,5.41-3.05,7.37
			c-1.95,1.95-4.6,3.05-7.37,3.05H22.92c-2.76,0-5.41-1.1-7.37-3.05c-1.95-1.95-3.05-4.6-3.05-7.37V36.87l9.22,9.22
			c1.17,1.17,2.76,1.83,4.42,1.83s3.25-0.66,4.42-1.83L50,26.64l19.45,19.45c1.17,1.17,2.76,1.83,4.42,1.83
			c1.66,0,3.25-0.66,4.42-1.83l9.22-9.22V68.75z"/>
	</g>
</g>
</svg>
