<?xml version="1.0" encoding="utf-8"?>
<!-- Generator: Adobe Illustrator 24.1.2, SVG Export Plug-In . SVG Version: 6.00 Build 0)  -->
<svg version="1.1" id="Camada_1" xmlns="http://www.w3.org/2000/svg" xmlns:xlink="http://www.w3.org/1999/xlink" x="0px" y="0px"
	 viewBox="0 0 100 100" style="enable-background:new 0 0 100 100;" xml:space="preserve">
<style type="text/css">
	.st0{clip-path:url(#SVGID_2_);}
	.st1{fill: #1967AE;}
</style>
<g>
	<defs>
		<rect id="SVGID_1_" width="100" height="100"/>
	</defs>
	<clipPath id="SVGID_2_">
		<use xlink:href="#SVGID_1_"  style="overflow:visible;"/>
	</clipPath>
	<g class="st0">
		<path class="st1" d="M87.5,48.15v-6.5c0-9.95-3.95-19.48-10.98-26.52C69.48,8.09,59.95,4.14,50,4.14
			c-9.95,0-19.48,3.95-26.52,10.98S12.5,31.7,12.5,41.64v6.5c-3.73,1.8-6.89,4.62-9.1,8.13C1.19,59.79,0.01,63.85,0,67.99v1.52
			c0.01,5.87,2.34,11.51,6.5,15.66c4.15,4.15,9.79,6.49,15.66,6.5h0.76c2.76,0,5.41-1.1,7.37-3.05c1.95-1.95,3.05-4.6,3.05-7.37v-25
			c0-2.4-0.83-4.73-2.35-6.59c-1.52-1.86-3.63-3.14-5.98-3.62v-4.4c0-6.63,2.63-12.99,7.32-17.68S43.37,16.64,50,16.64
			s12.99,2.63,17.68,7.32C72.37,28.65,75,35.01,75,41.64v4.4c-2.35,0.48-4.47,1.76-5.98,3.62c-1.52,1.86-2.35,4.19-2.35,6.59v22.92
			h-6.25c-1.66,0-3.25,0.66-4.42,1.83c-1.17,1.17-1.83,2.76-1.83,4.42c0,1.66,0.66,3.25,1.83,4.42c1.17,1.17,2.76,1.83,4.42,1.83
			h17.42c5.87-0.01,11.51-2.34,15.66-6.5c4.15-4.15,6.49-9.79,6.5-15.66v-1.52c-0.01-4.15-1.19-8.21-3.4-11.72
			C94.39,52.77,91.24,49.95,87.5,48.15z M20.83,79.08c-2.31-0.32-4.43-1.47-5.96-3.23c-1.53-1.76-2.37-4.02-2.37-6.35v-1.52
			c0-2.33,0.84-4.59,2.37-6.35c1.53-1.76,3.65-2.91,5.96-3.23V79.08z M87.5,69.49c0,2.33-0.84,4.59-2.37,6.35
			c-1.53,1.76-3.65,2.91-5.96,3.23V58.43c2.31,0.32,4.43,1.47,5.96,3.23c1.53,1.76,2.37,4.02,2.37,6.35V69.49z"/>
	</g>
</g>
</svg>
