<?xml version="1.0" encoding="utf-8"?>
<!-- Generator: Adobe Illustrator 24.1.2, SVG Export Plug-In . SVG Version: 6.00 Build 0)  -->
<svg version="1.1" id="Camada_1" xmlns="http://www.w3.org/2000/svg" xmlns:xlink="http://www.w3.org/1999/xlink" x="0px" y="0px"
	 viewBox="0 0 100 100" enable-background="new 0 0 100 100" xml:space="preserve">
<path fill="#1C8CA6" d="M78.2,46.79H59.04c-0.77,0-1.53-0.15-2.25-0.44c-0.71-0.29-1.36-0.72-1.91-1.27
	c-0.55-0.54-0.98-1.19-1.27-1.9c-0.3-0.71-0.45-1.48-0.45-2.25V21.68c0.01-2.22-0.5-4.4-1.47-6.4c-0.97-1.99-2.39-3.73-4.14-5.09
	c-1.67-1.32-3.63-2.24-5.71-2.69c-2.08-0.45-4.24-0.41-6.31,0.11c-8.05,2-15.42,6.11-21.36,11.9C8.23,25.3,3.93,32.56,1.71,40.56
	c-2.22,8-2.28,16.44-0.17,24.47c2.11,8.03,6.31,15.35,12.17,21.22c5.86,5.87,13.17,10.08,21.19,12.2
	c8.02,2.12,16.45,2.07,24.45-0.15c7.99-2.21,15.25-6.51,21.04-12.45c5.79-5.94,9.9-13.31,11.91-21.36c0.52-2.07,0.56-4.24,0.12-6.33
	s-1.37-4.05-2.69-5.73c-1.37-1.75-3.12-3.17-5.12-4.14C82.61,47.31,80.42,46.8,78.2,46.79z M80.03,61.39
	c-1.46,5.89-4.46,11.28-8.69,15.63c-4.23,4.35-9.53,7.49-15.37,9.11s-12.01,1.66-17.87,0.12c-5.86-1.55-11.21-4.62-15.49-8.91
	c-4.28-4.29-7.35-9.65-8.89-15.51c-1.54-5.87-1.49-12.04,0.14-17.88c1.63-5.84,4.78-11.15,9.13-15.37
	c4.35-4.22,9.74-7.22,15.62-8.67c0.1-0.02,0.2-0.04,0.3-0.04c0.31,0.01,0.61,0.13,0.84,0.32c0.23,0.18,0.41,0.41,0.54,0.67
	c0.13,0.26,0.2,0.55,0.2,0.84v19.25c0,2.43,0.48,4.84,1.41,7.09c0.93,2.25,2.3,4.29,4.02,6.01c1.72,1.72,3.76,3.08,6.01,4.01
	c2.25,0.93,4.66,1.41,7.09,1.41h19.16c0.3,0,0.59,0.07,0.86,0.2c0.27,0.13,0.5,0.32,0.68,0.56c0.14,0.16,0.24,0.35,0.3,0.55
	C80.07,60.97,80.08,61.18,80.03,61.39z"/>
<path fill="#1C8CA6" d="M99.68,30.17c-1.94-7.14-5.71-13.65-10.94-18.89C83.51,6.05,77.01,2.27,69.88,0.32
	c-1.26-0.36-2.58-0.42-3.87-0.18c-1.29,0.24-2.5,0.78-3.55,1.56c-1.05,0.79-1.9,1.81-2.48,2.98c-0.59,1.17-0.9,2.46-0.9,3.77v19.83
	c0,3.36,1.33,6.58,3.7,8.95c2.37,2.37,5.59,3.71,8.94,3.71h19.9c1.3-0.01,2.58-0.33,3.74-0.91c1.16-0.59,2.17-1.44,2.95-2.48
	s1.31-2.25,1.55-3.53C100.1,32.74,100.03,31.42,99.68,30.17z"/>
</svg>
