<?xml version="1.0" encoding="utf-8"?>
<!-- Generator: Adobe Illustrator 24.1.2, SVG Export Plug-In . SVG Version: 6.00 Build 0)  -->
<svg version="1.1" id="Camada_1" xmlns="http://www.w3.org/2000/svg" xmlns:xlink="http://www.w3.org/1999/xlink" x="0px" y="0px"
	 viewBox="0 0 100 100" style="enable-background:new 0 0 100 100;" xml:space="preserve">
<style type="text/css">
	.st0{fill:#1C8CA6;}
</style>
<path class="st0" d="M91.1,75.53c-1.14-4.89-3.89-9.24-7.82-12.36c-3.93-3.12-8.79-4.82-13.81-4.83H56.25V51.6
	c6.21-1.53,11.65-5.28,15.28-10.54c3.64-5.26,5.22-11.68,4.45-18.03c-0.77-6.35-3.84-12.2-8.62-16.44C62.57,2.34,56.4,0,50,0
	c-6.4,0-12.57,2.34-17.36,6.59s-7.86,10.09-8.62,16.44c-0.77,6.35,0.81,12.76,4.45,18.03c3.64,5.26,9.07,9.01,15.28,10.54v6.73
	H30.53c-5.02,0.01-9.88,1.71-13.81,4.83c-3.93,3.12-6.68,7.48-7.82,12.36c-2.63,0.79-4.93,2.43-6.54,4.66
	c-1.61,2.23-2.44,4.93-2.35,7.68s1.07,5.4,2.81,7.53c1.74,2.13,4.13,3.63,6.81,4.26c2.68,0.63,5.49,0.36,8-0.76
	c2.51-1.13,4.58-3.05,5.88-5.48c1.3-2.42,1.77-5.21,1.33-7.92c-0.44-2.72-1.76-5.21-3.77-7.1c0.49-2.15,1.68-4.06,3.4-5.44
	c1.72-1.38,3.85-2.13,6.05-2.13h13.22v5.83c-2.38,1.38-4.25,3.5-5.3,6.04s-1.24,5.36-0.53,8.02c0.71,2.66,2.28,5.01,4.46,6.68
	c2.18,1.68,4.86,2.58,7.61,2.58c2.75,0,5.43-0.91,7.61-2.58c2.18-1.68,3.75-4.02,4.46-6.68c0.71-2.66,0.53-5.48-0.53-8.02
	c-1.05-2.54-2.92-4.67-5.3-6.04v-5.83h13.22c2.2,0,4.33,0.76,6.05,2.13c1.72,1.38,2.92,3.29,3.4,5.44c-2,1.89-3.33,4.38-3.77,7.1
	c-0.44,2.72,0.03,5.5,1.33,7.92c1.3,2.42,3.37,4.35,5.88,5.48c2.51,1.13,5.32,1.4,8,0.76c2.68-0.63,5.07-2.13,6.81-4.26
	c1.74-2.13,2.73-4.78,2.81-7.53c0.08-2.75-0.74-5.45-2.35-7.68C96.03,77.96,93.73,76.32,91.1,75.53L91.1,75.53z M36.33,26.17
	c0-2.7,0.8-5.35,2.3-7.6c1.5-2.25,3.64-4,6.14-5.04c2.5-1.04,5.25-1.31,7.9-0.78c2.65,0.53,5.09,1.83,7,3.74
	c1.91,1.91,3.21,4.35,3.74,7c0.53,2.65,0.26,5.4-0.78,7.9c-1.03,2.5-2.79,4.63-5.04,6.14c-2.25,1.5-4.89,2.3-7.6,2.3
	c-3.63,0-7.1-1.45-9.66-4.01C37.77,33.28,36.33,29.8,36.33,26.17L36.33,26.17z"/>
</svg>
