<?xml version="1.0" encoding="utf-8"?>
<!-- Generator: Adobe Illustrator 24.1.2, SVG Export Plug-In . SVG Version: 6.00 Build 0)  -->
<svg version="1.1" id="Camada_1" xmlns="http://www.w3.org/2000/svg" xmlns:xlink="http://www.w3.org/1999/xlink" x="0px" y="0px"
	 viewBox="0 0 100 100" style="enable-background:new 0 0 100 100;" xml:space="preserve">
<style type="text/css">
	.st0{clip-path:url(#SVGID_2_);}
	.st1{fill:#FFFFFF;}
</style>
<g>
	<defs>
		<rect id="SVGID_1_" width="100" height="100"/>
	</defs>
	<clipPath id="SVGID_2_">
		<use xlink:href="#SVGID_1_"  style="overflow:visible;"/>
	</clipPath>
	<g class="st0">
		<path class="st1" d="M77.08,4.17H22.92c-6.08,0.01-11.9,2.42-16.2,6.72c-4.3,4.3-6.71,10.12-6.72,16.2v45.83
			c0.01,6.08,2.42,11.9,6.72,16.2c4.3,4.3,10.12,6.71,16.2,6.72h54.17c6.08-0.01,11.9-2.42,16.2-6.72c4.3-4.3,6.71-10.12,6.72-16.2
			V27.08c-0.01-6.08-2.42-11.9-6.72-16.2C88.98,6.59,83.16,4.17,77.08,4.17z M77.08,16.67c2.53,0.01,4.96,0.94,6.85,2.63
			L56.85,46.38c-1.84,1.76-4.29,2.74-6.83,2.74c-2.54,0-4.99-0.98-6.83-2.74L16.1,19.3c1.87-1.68,4.3-2.61,6.81-2.63H77.08z
			 M77.08,83.33H22.92c-2.76,0-5.41-1.1-7.37-3.05c-1.95-1.95-3.05-4.6-3.05-7.37V33.4l21.83,21.83c2.06,2.06,4.5,3.69,7.19,4.81
			c2.69,1.11,5.57,1.69,8.48,1.69s5.79-0.57,8.48-1.69c2.69-1.11,5.13-2.75,7.19-4.81L87.5,33.4v39.51c0,2.76-1.1,5.41-3.05,7.37
			C82.5,82.24,79.85,83.33,77.08,83.33z"/>
	</g>
</g>
</svg>
