<?xml version="1.0" encoding="utf-8"?>
<!-- Generator: Adobe Illustrator 24.1.2, SVG Export Plug-In . SVG Version: 6.00 Build 0)  -->
<svg version="1.1" id="Camada_1" xmlns="http://www.w3.org/2000/svg" xmlns:xlink="http://www.w3.org/1999/xlink" x="0px" y="0px"
	 viewBox="0 0 1920 1080" style="enable-background:new 0 0 1920 1080;" xml:space="preserve">
<style type="text/css">
	.st0{fill:#0071BC;}
</style>
<path class="st0" d="M134.7,741.26c13.14,7.5,23.46,17.82,30.95,30.95c7.49,13.14,11.24,27.72,11.24,43.74
	c0,16.22-3.75,30.91-11.24,44.04c-7.5,13.14-17.82,23.46-30.95,30.95c-13.14,7.5-27.83,11.24-44.04,11.24
	c-15.81,0-30.24-3.64-43.27-10.93c-13.04-7.29-23.36-17.4-30.95-30.34c-7.6-12.94-11.5-27.31-11.7-43.12v-0.62V669.04
	c0-2.87,0.87-5.13,2.62-6.78c1.74-1.64,3.95-2.46,6.62-2.46c2.87,0,5.13,0.82,6.78,2.46c1.64,1.65,2.46,3.9,2.46,6.78v96.1
	c6.78-10.88,16.06-19.45,27.87-25.72c11.8-6.26,25-9.39,39.58-9.39C106.87,730.02,121.55,733.77,134.7,741.26z M125.15,875.86
	c10.27-6.05,18.37-14.32,24.33-24.79c5.95-10.47,8.93-22.18,8.93-35.11c0-12.94-2.98-24.64-8.93-35.11
	c-5.96-10.47-14.07-18.68-24.33-24.64c-10.27-5.95-21.77-8.93-34.5-8.93c-12.73,0-24.23,2.98-34.5,8.93
	c-10.27,5.96-18.33,14.17-24.18,24.64s-8.78,22.18-8.78,35.11c0,12.94,2.93,24.64,8.78,35.11c5.85,10.47,13.91,18.74,24.18,24.79
	c10.27,6.06,21.76,9.09,34.5,9.09C103.38,884.94,114.88,881.92,125.15,875.86z"/>
<path class="st0" d="M362.46,734.33c1.64,1.65,2.46,3.9,2.46,6.78v150c0,2.67-0.82,4.88-2.46,6.62c-1.65,1.75-3.9,2.62-6.78,2.62
	c-2.67,0-4.88-0.87-6.62-2.62c-1.75-1.74-2.62-3.95-2.62-6.62v-16.02c-6.98,8.62-15.51,15.35-25.56,20.17
	c-10.06,4.83-21.05,7.24-32.96,7.24c-14.99,0-28.39-3.08-40.19-9.24c-11.81-6.16-21.05-15.14-27.72-26.95
	c-6.67-11.8-10.01-25.92-10.01-42.35v-82.85c0-2.67,0.87-4.88,2.62-6.62c1.74-1.74,3.95-2.62,6.62-2.62c2.67,0,4.88,0.88,6.62,2.62
	c1.74,1.75,2.62,3.96,2.62,6.62v82.85c0,19.51,5.49,34.39,16.48,44.66c10.98,10.27,25.3,15.4,42.97,15.4
	c10.88,0,20.79-2.1,29.72-6.31c8.93-4.21,15.96-10.06,21.1-17.56c5.13-7.49,7.7-15.76,7.7-24.79v-94.25c0-2.87,0.87-5.13,2.62-6.78
	c1.74-1.64,3.95-2.46,6.62-2.46C358.56,731.87,360.82,732.69,362.46,734.33z"/>
<path class="st0" d="M453.2,691.37c-6.78,9.96-10.16,23.36-10.16,40.19v6.47h40.66c2.46,0,4.47,0.77,6.01,2.31s2.31,3.54,2.31,6.01
	s-0.77,4.47-2.31,6.01s-3.54,2.31-6.01,2.31h-40.66V891.1c0,2.67-0.88,4.88-2.62,6.62c-1.75,1.75-4.06,2.62-6.93,2.62
	c-2.67,0-4.88-0.87-6.62-2.62c-1.75-1.74-2.62-3.95-2.62-6.62V754.66h-24.02c-2.46,0-4.47-0.77-6.01-2.31s-2.31-3.54-2.31-6.01
	s0.77-4.47,2.31-6.01s3.54-2.31,6.01-2.31h24.02v-6.47c0-21.97,5.13-39.42,15.4-52.36c10.26-12.94,25.67-19.4,46.2-19.4
	c2.67,0,4.88,0.77,6.62,2.31c1.74,1.54,2.62,3.54,2.62,6.01s-0.88,4.47-2.62,6.01c-1.75,1.54-3.96,2.31-6.62,2.31
	C470.85,676.43,459.97,681.41,453.2,691.37z M565.62,691.37c-6.78,9.96-10.16,23.36-10.16,40.19v6.47h40.66
	c2.46,0,4.47,0.77,6.01,2.31s2.31,3.54,2.31,6.01s-0.77,4.47-2.31,6.01s-3.54,2.31-6.01,2.31h-40.66V891.1
	c0,2.67-0.88,4.88-2.62,6.62c-1.75,1.75-4.06,2.62-6.93,2.62c-2.67,0-4.88-0.87-6.62-2.62c-1.75-1.74-2.62-3.95-2.62-6.62V754.66
	h-24.02c-2.46,0-4.47-0.77-6.01-2.31s-2.31-3.54-2.31-6.01s0.77-4.47,2.31-6.01s3.54-2.31,6.01-2.31h24.02v-6.47
	c0-21.97,5.13-39.42,15.4-52.36c10.26-12.94,25.67-19.4,46.2-19.4c2.67,0,4.88,0.77,6.62,2.31c1.74,1.54,2.62,3.54,2.62,6.01
	s-0.88,4.47-2.62,6.01c-1.75,1.54-3.96,2.31-6.62,2.31C583.27,676.43,572.39,681.41,565.62,691.37z"/>
<path class="st0" d="M732.49,740.96c11.8,7.08,20.99,16.89,27.57,29.41c6.57,12.53,9.86,26.8,9.86,42.81c0,2.67-0.82,4.77-2.46,6.31
	c-1.65,1.54-3.8,2.31-6.47,2.31H631.93c0.62,12.12,3.8,22.95,9.55,32.49c5.75,9.55,13.45,16.99,23.1,22.33
	c9.65,5.34,20.43,8.01,32.34,8.01c8.01,0,16.06-1.39,24.18-4.16c8.11-2.77,14.52-6.42,19.25-10.93c2.05-1.64,4.21-2.46,6.47-2.46
	c2.26,0,4.1,0.62,5.54,1.85c2.26,1.85,3.39,4,3.39,6.47c0,2.06-0.92,4-2.77,5.85c-6.57,5.96-15.14,10.89-25.72,14.78
	c-10.58,3.9-20.69,5.85-30.34,5.85c-16.22,0-30.65-3.64-43.27-10.93c-12.63-7.29-22.54-17.45-29.72-30.49
	c-7.19-13.04-10.78-27.77-10.78-44.2c0-16.63,3.33-31.46,10.01-44.51c6.67-13.04,16.02-23.2,28.03-30.49
	c12.01-7.29,25.72-10.93,41.12-10.93C707.28,730.33,720.68,733.87,732.49,740.96z M651.79,763.59
	c-10.99,10.68-17.51,24.75-19.56,42.2h119.81c-1.44-17.45-7.6-31.52-18.48-42.2c-10.89-10.67-24.64-16.02-41.27-16.02
	C676.28,747.58,662.77,752.92,651.79,763.59z"/>
<path class="st0" d="M882.36,884.17c1.74,1.75,2.62,4.06,2.62,6.93c0,2.67-0.88,4.88-2.62,6.62c-1.75,1.75-4.06,2.62-6.93,2.62
	h-7.08c-11.29,0-21.36-2.57-30.18-7.7c-8.83-5.13-15.71-12.17-20.64-21.1c-4.93-8.93-7.39-19.04-7.39-30.34v-86.55h-24.02
	c-2.46,0-4.47-0.77-6.01-2.31s-2.31-3.54-2.31-6.01s0.77-4.47,2.31-6.01s3.54-2.31,6.01-2.31h24.02v-50.2
	c0-2.87,0.87-5.18,2.62-6.93c1.74-1.74,3.95-2.62,6.62-2.62c2.87,0,5.18,0.88,6.93,2.62c1.74,1.75,2.62,4.06,2.62,6.93v50.2h40.66
	c2.46,0,4.47,0.77,6.01,2.31s2.31,3.54,2.31,6.01s-0.77,4.47-2.31,6.01s-3.54,2.31-6.01,2.31h-40.66v86.55
	c0,11.91,3.7,21.61,11.09,29.11c7.39,7.5,16.94,11.24,28.64,11.24h6.78C878.3,881.56,880.61,882.43,882.36,884.17z"/>
<path class="st0" d="M1003.87,884.17c1.74,1.75,2.62,4.06,2.62,6.93c0,2.67-0.88,4.88-2.62,6.62c-1.75,1.75-4.06,2.62-6.93,2.62
	h-7.08c-11.29,0-21.36-2.57-30.18-7.7c-8.83-5.13-15.71-12.17-20.64-21.1c-4.93-8.93-7.39-19.04-7.39-30.34v-86.55h-24.02
	c-2.46,0-4.47-0.77-6.01-2.31s-2.31-3.54-2.31-6.01s0.77-4.47,2.31-6.01s3.54-2.31,6.01-2.31h24.02v-50.2
	c0-2.87,0.87-5.18,2.62-6.93c1.74-1.74,3.95-2.62,6.62-2.62c2.87,0,5.18,0.88,6.93,2.62c1.74,1.75,2.62,4.06,2.62,6.93v50.2h40.66
	c2.46,0,4.46,0.77,6.01,2.31c1.54,1.54,2.31,3.54,2.31,6.01s-0.77,4.47-2.31,6.01c-1.54,1.54-3.54,2.31-6.01,2.31h-40.66v86.55
	c0,11.91,3.7,21.61,11.09,29.11c7.39,7.5,16.94,11.24,28.64,11.24h6.78C999.81,881.56,1002.12,882.43,1003.87,884.17z"/>
<path class="st0" d="M1249.8,741.26c13.14,7.5,23.46,17.82,30.96,30.95c7.49,13.14,11.24,27.83,11.24,44.04v74.84
	c0,2.67-0.82,4.88-2.46,6.62c-1.65,1.75-3.9,2.62-6.78,2.62c-2.67,0-4.88-0.87-6.62-2.62c-1.75-1.74-2.62-3.95-2.62-6.62v-24.02
	c-6.78,10.89-16.07,19.46-27.88,25.72c-11.81,6.27-25,9.39-39.58,9.39c-16.22,0-30.9-3.74-44.04-11.24
	c-13.14-7.49-23.46-17.81-30.96-30.95c-7.5-13.14-11.24-27.72-11.24-43.74c0-16.22,3.74-30.9,11.24-44.04
	c7.49-13.14,17.81-23.46,30.96-30.95c13.14-7.49,27.82-11.24,44.04-11.24C1222.08,730.02,1236.66,733.77,1249.8,741.26z
	 M1240.56,876.01c10.27-5.95,18.33-14.17,24.18-24.64c5.85-10.47,8.78-22.18,8.78-35.11s-2.93-24.64-8.78-35.11
	c-5.85-10.47-13.91-18.73-24.18-24.79c-10.27-6.05-21.77-9.09-34.5-9.09c-12.73,0-24.23,3.03-34.5,9.09
	c-10.27,6.06-18.38,14.32-24.33,24.79c-5.96,10.47-8.93,22.18-8.93,35.11s2.97,24.64,8.93,35.11c5.95,10.47,14.06,18.69,24.33,24.64
	c10.27,5.96,21.76,8.93,34.5,8.93C1218.8,884.94,1230.29,881.97,1240.56,876.01z"/>
<path class="st0" d="M1350.76,895.88c-11.29-4.21-20.64-10.63-28.03-19.25c-1.44-1.64-2.16-3.49-2.16-5.54
	c0-2.87,1.33-5.24,4.01-7.08c1.23-1.03,2.97-1.54,5.23-1.54c2.87,0,5.24,1.13,7.08,3.39c10.27,12.53,26.8,18.79,49.59,18.79
	c16.22,0,28.18-2.87,35.88-8.62c7.7-5.75,11.55-13.14,11.55-22.18c0-16.22-15.71-26.59-47.13-31.11
	c-19.92-2.87-34.96-8.32-45.12-16.32c-10.16-8.01-15.25-17.66-15.25-28.95c0-14.99,5.49-26.64,16.48-34.96
	c10.98-8.32,25.3-12.47,42.97-12.47c25.87,0,45.48,9.24,58.83,27.72c1.23,1.44,1.85,3.19,1.85,5.24c0,2.88-1.65,5.24-4.93,7.08
	c-2.05,0.82-3.6,1.23-4.62,1.23c-3.08,0-5.65-1.33-7.7-4c-10.47-13.35-25.15-20.02-44.04-20.02c-12.53,0-22.48,2.72-29.88,8.16
	c-7.39,5.44-11.09,12.17-11.09,20.17c0,8.21,3.54,14.78,10.63,19.71c7.08,4.93,18.94,8.62,35.57,11.09
	c21.76,3.08,37.42,8.88,46.97,17.4c9.55,8.52,14.32,18.84,14.32,30.95c0,9.45-3.03,17.76-9.09,24.95
	c-6.06,7.19-14.12,12.73-24.18,16.63c-10.06,3.9-21.05,5.85-32.96,5.85C1373.65,902.19,1362.05,900.09,1350.76,895.88z"/>
<path class="st0" d="M1507.32,895.88c-11.29-4.21-20.64-10.63-28.03-19.25c-1.44-1.64-2.16-3.49-2.16-5.54
	c0-2.87,1.33-5.24,4.01-7.08c1.23-1.03,2.97-1.54,5.23-1.54c2.87,0,5.24,1.13,7.08,3.39c10.27,12.53,26.8,18.79,49.59,18.79
	c16.22,0,28.18-2.87,35.88-8.62c7.7-5.75,11.55-13.14,11.55-22.18c0-16.22-15.71-26.59-47.13-31.11
	c-19.92-2.87-34.96-8.32-45.12-16.32c-10.16-8.01-15.25-17.66-15.25-28.95c0-14.99,5.49-26.64,16.48-34.96
	c10.98-8.32,25.3-12.47,42.97-12.47c25.87,0,45.48,9.24,58.83,27.72c1.23,1.44,1.85,3.19,1.85,5.24c0,2.88-1.65,5.24-4.93,7.08
	c-2.05,0.82-3.6,1.23-4.62,1.23c-3.08,0-5.65-1.33-7.7-4c-10.47-13.35-25.15-20.02-44.04-20.02c-12.53,0-22.48,2.72-29.88,8.16
	c-7.39,5.44-11.09,12.17-11.09,20.17c0,8.21,3.54,14.78,10.63,19.71c7.08,4.93,18.94,8.62,35.57,11.09
	c21.76,3.08,37.42,8.88,46.97,17.4c9.55,8.52,14.32,18.84,14.32,30.95c0,9.45-3.03,17.76-9.09,24.95
	c-6.06,7.19-14.12,12.73-24.18,16.63c-10.06,3.9-21.05,5.85-32.96,5.85C1530.21,902.19,1518.61,900.09,1507.32,895.88z"/>
<path class="st0" d="M1750.79,740.96c11.8,7.08,20.99,16.89,27.57,29.41c6.57,12.53,9.86,26.8,9.86,42.81
	c0,2.67-0.82,4.77-2.46,6.31c-1.64,1.54-3.8,2.31-6.47,2.31h-129.05c0.62,12.12,3.8,22.95,9.55,32.49
	c5.75,9.55,13.45,16.99,23.1,22.33c9.65,5.34,20.43,8.01,32.34,8.01c8.01,0,16.06-1.39,24.18-4.16c8.11-2.77,14.52-6.42,19.25-10.93
	c2.05-1.64,4.21-2.46,6.47-2.46c2.26,0,4.1,0.62,5.54,1.85c2.26,1.85,3.39,4,3.39,6.47c0,2.06-0.92,4-2.77,5.85
	c-6.57,5.96-15.14,10.89-25.72,14.78c-10.58,3.9-20.69,5.85-30.34,5.85c-16.22,0-30.65-3.64-43.27-10.93
	c-12.63-7.29-22.54-17.45-29.72-30.49c-7.19-13.04-10.78-27.77-10.78-44.2c0-16.63,3.33-31.46,10.01-44.51
	c6.67-13.04,16.02-23.2,28.03-30.49c12.01-7.29,25.72-10.93,41.12-10.93C1725.58,730.33,1738.98,733.87,1750.79,740.96z
	 M1670.09,763.59c-10.99,10.68-17.51,24.75-19.56,42.2h119.81c-1.44-17.45-7.6-31.52-18.48-42.2
	c-10.89-10.67-24.64-16.02-41.27-16.02C1694.58,747.58,1681.07,752.92,1670.09,763.59z"/>
<path class="st0" d="M1900.66,884.17c1.74,1.75,2.62,4.06,2.62,6.93c0,2.67-0.88,4.88-2.62,6.62c-1.75,1.75-4.06,2.62-6.93,2.62
	h-7.08c-11.29,0-21.36-2.57-30.18-7.7c-8.83-5.13-15.71-12.17-20.64-21.1c-4.93-8.93-7.39-19.04-7.39-30.34v-86.55h-24.03
	c-2.46,0-4.46-0.77-6.01-2.31c-1.54-1.54-2.31-3.54-2.31-6.01s0.77-4.47,2.31-6.01c1.54-1.54,3.54-2.31,6.01-2.31h24.03v-50.2
	c0-2.87,0.87-5.18,2.62-6.93c1.74-1.74,3.95-2.62,6.62-2.62c2.87,0,5.18,0.88,6.93,2.62c1.74,1.75,2.62,4.06,2.62,6.93v50.2h40.66
	c2.46,0,4.47,0.77,6.01,2.31c1.54,1.54,2.31,3.54,2.31,6.01s-0.77,4.47-2.31,6.01c-1.54,1.54-3.54,2.31-6.01,2.31h-40.66v86.55
	c0,11.91,3.7,21.61,11.09,29.11c7.39,7.5,16.94,11.24,28.64,11.24h6.78C1896.6,881.56,1898.91,882.43,1900.66,884.17z"/>
<g>
	<path class="st0" d="M1253.61,297.24c0-26.66,0.22-53.33-0.08-79.99c-0.19-17.32,8.12-24.24,25.13-25.74
		c47.76-4.22,53.45,0.42,53.48,48.7c0.02,41.59,0.37,83.2-0.25,124.78c-1.69,113.52-97.68,179.07-181.24,174.85
		c-97.63-4.93-170.6-75.86-172.15-177.34c-0.68-44.78-0.4-89.59-0.09-134.38c0.24-34.4,3.03-36.65,39.84-36.53
		c35.5,0.11,37.97,2.37,38.24,38.25c0.35,46.92-0.81,93.89,0.82,140.76c1.47,42.15,22.68,72.89,62.09,88.98
		c35.76,14.6,69.18,7.84,98.81-16.18c23.84-19.33,34.54-45.53,35.22-75.77c0.53-23.45,0.1-46.92,0.1-70.39
		C1253.56,297.24,1253.59,297.24,1253.61,297.24z"/>
	<path class="st0" d="M711.65,538.92c-28.77,0-57.55-0.51-86.3,0.15c-28.17,0.65-29.53-17.83-29.67-38.5
		c-0.15-20.8,4.86-35.11,30.14-34.66c49,0.86,98.02,0.62,147.03,0.24c45.68-0.35,79.15-23.44,93.82-63.67
		c15.06-41.28,6.84-81.94-28.31-109.07c-16.48-12.72-39.71-21.35-60.52-22.84c-47.71-3.41-95.82-0.96-143.76-1.54
		c-31.3-0.38-33.68-3.71-33.54-39.51c0.13-33.83,2.57-38.06,32.04-37.59c58.47,0.93,117.47-0.85,175.23,6.47
		c85.58,10.85,148.6,92.93,142.76,176.96c-6.43,92.47-77.6,161.52-168.61,163.28c-23.43,0.45-46.88,0.07-70.32,0.07
		C711.65,538.77,711.65,538.84,711.65,538.92z"/>
	<path class="st0" d="M1191.1,286.12c-0.02,22.29-0.21,44.59,0.02,66.88c0.29,28.1-19.92,24.7-37.9,25.19
		c-18.45,0.5-34.32-1.11-34.02-26.01c0.54-44.58,0.63-89.17-0.06-133.75c-0.42-27.25,17.43-26.77,36.48-26.97
		c19.68-0.21,36.69,1.09,35.68,27.79C1190.45,241.51,1191.12,263.83,1191.1,286.12z"/>
	<path class="st0" d="M691.23,403.97c-22.32,0.03-44.64-0.03-66.96,0.05c-26.33,0.09-23.53-19.13-23.63-35.99
		c-0.11-17.06-2.3-35.91,23.83-35.85c46.76,0.11,93.53-0.34,140.29,0.27c26.29,0.34,22,20.92,22.29,37.32
		c0.28,16.1,1.31,33.8-22.49,34.11C740.12,404.18,715.68,403.94,691.23,403.97z"/>
</g>
</svg>
