<?xml version="1.0" encoding="utf-8"?>
<!-- Generator: Adobe Illustrator 24.1.2, SVG Export Plug-In . SVG Version: 6.00 Build 0)  -->
<svg version="1.1" id="Camada_1" xmlns="http://www.w3.org/2000/svg" xmlns:xlink="http://www.w3.org/1999/xlink" x="0px" y="0px"
	 viewBox="0 0 1920 1080" style="enable-background:new 0 0 1920 1080;" xml:space="preserve">
<style type="text/css">
	.st0{fill:#006EFF;}
</style>
<g>
	
	<path class="st0" d="M391.1,541.8c-17.6,0-27.2-8.2-32.2-15.3L83.6,163.6v336.2c0,11.2-4,21.3-11.7,29.4
		c-7.9,8.3-18.3,12.6-30.1,12.6c-11.7,0-22-4.2-29.8-12c-7.8-7.9-12-18.2-12-30V48.5c0-11.7,4.1-22.1,12-30
		c7.8-7.9,18.1-12.1,29.9-12.1c12.6,0,23.7,5.2,32,14.9l0.3,0.4l275.2,363.5V48.5c0-11.9,4.3-22.3,12.5-30.2
		c8-7.7,18.1-11.8,29.3-11.8c11.7,0,22,4.2,29.8,12c7.9,7.9,12,18.3,12,30v451.3c0,11.2-4,21.3-11.7,29.4
		C413.3,537.5,402.9,541.8,391.1,541.8z"/>
	<path class="st0" d="M23.9,517.8c-4.7-4.7-7-10.7-7-18V48.5c0-7.3,2.3-13.3,7-18c4.7-4.7,10.6-7.1,17.9-7.1c7.7,0,14,3,19.2,9
		l305.2,403.2V48.5c0-7.3,2.4-13.3,7.3-18c4.9-4.7,10.7-7.1,17.6-7.1c7.2,0,13.2,2.4,17.9,7.1c4.7,4.7,7,10.7,7,18v451.3
		c0,6.8-2.3,12.7-7,17.7c-4.7,4.9-10.6,7.4-17.9,7.4c-8.5,0-14.7-2.8-18.5-8.3L66.7,113.3v386.5c0,6.8-2.3,12.7-7,17.7
		c-4.7,4.9-10.6,7.4-17.9,7.4S28.6,522.5,23.9,517.8z"/>
	<path class="st0" d="M568.5,541.8c-11.2,0-21.4-4.3-29.4-12.3c-8-8.1-12.3-18.3-12.3-29.7V48.5c0-11.9,4.3-22.3,12.5-30.2
		c8-7.7,18.1-11.8,29.3-11.8h299.5c11.7,0,22,4.2,29.8,12c7.9,7.9,12,18.1,12,29.4c0,11.5-4.2,21.6-12.2,29.3
		c-7.8,7.5-18,11.4-29.6,11.4H610.4v143.2h183c11.7,0,22,4.2,29.8,12c7.9,7.9,12,18.1,12,29.4c0,11.5-4.3,21.7-12.6,29.6
		c-8,7.7-18.1,11.8-29.3,11.8h-183v145.1h257.7c11.5,0,21.7,4,29.5,11.4c8,7.7,12.3,17.9,12.3,29.3c0,11.3-4.1,21.5-12,29.4
		c-7.8,7.9-18.2,12-29.8,12L568.5,541.8z"/>
	<path class="st0" d="M551,517.4c-4.9-4.9-7.3-10.8-7.3-17.7V48.5c0-7.3,2.4-13.3,7.3-18c4.9-4.7,10.7-7.1,17.6-7.1h299.5
		c7.2,0,13.2,2.4,17.9,7.1c4.7,4.7,7,10.5,7,17.3c0,6.9-2.3,12.5-7,17c-4.7,4.5-10.7,6.7-17.9,6.7H593.5v177.2h199.9
		c7.2,0,13.2,2.4,17.9,7.1c4.7,4.7,7,10.5,7,17.3c0,6.8-2.5,12.6-7.3,17.3c-4.9,4.7-10.8,7.1-17.6,7.1H593.5v179.1h274.6
		c7.2,0,13.2,2.3,17.9,6.7c4.7,4.5,7,10.2,7,17c0,6.8-2.3,12.6-7,17.3c-4.7,4.7-10.7,7.1-17.9,7.1H568.6
		C561.8,524.8,555.9,522.4,551,517.4z"/>
	<path class="st0" d="M1348.9,541.8c-9.9,0-19.2-3.4-26.7-9.9c-7-6-11.9-13.8-14.5-23l-87.1-319.6l-86.7,319.3l-0.2,0.5
		c-3.1,9.4-8.1,17.1-14.9,22.9c-7.5,6.5-16.7,9.9-26.6,9.9s-19.2-3.4-26.7-9.9c-7-6-11.9-13.7-14.5-22.9L920.1,64l0-0.2
		c-1.7-6.2-2.5-11.5-2.5-16c0-11.6,3.8-21.7,11-29.4c7.4-7.9,17.4-12,28.9-12c19.4,0,33.7,11,40.3,30.9l0.1,0.3l94.1,329.8
		l88.6-318.4c2.3-8.6,7.7-15.9,15.5-21.2c7.3-4.9,15.5-7.3,24.4-7.3c9,0,17.2,2.5,24.4,7.5c7.3,5.2,12.4,12.1,15.3,20.8l0.1,0.4
		l89.3,319l94.8-332.9l0-0.2c5.6-18.2,20.3-28.7,40.4-28.7c14.9,0,23.9,6.9,28.8,12.7c6.4,7.5,9.8,17.2,9.8,28.1
		c0,5-0.8,10.5-2.5,16.7l-0.1,0.3l-130.3,444.5c-3.1,10.1-8.3,18.1-15.4,23.9C1367.7,538.6,1358.6,541.8,1348.9,541.8z"/>
	<path class="st0" d="M1500.8,30.2c3.8,4.5,5.7,10.2,5.7,17c0,3.4-0.6,7.5-1.9,12.2l-130.3,444.3c-2.1,6.8-5.4,12.1-9.9,15.7
		c-4.5,3.6-9.7,5.5-15.6,5.5c-6,0-11.2-1.9-15.6-5.8c-4.5-3.8-7.6-8.8-9.3-14.8l-103.4-379.4l-102.8,378.8
		c-2.1,6.4-5.4,11.6-9.9,15.4c-4.5,3.8-9.7,5.8-15.6,5.8c-6,0-11.2-1.9-15.6-5.8c-4.5-3.8-7.6-8.8-9.3-14.8L936.4,59.4
		c-1.3-4.7-1.9-8.6-1.9-11.6c0-7.3,2.1-13.2,6.4-17.7c4.2-4.5,9.8-6.7,16.6-6.7c11.9,0,20,6.4,24.3,19.3l110.5,387.1l104.7-376.2
		c1.3-4.7,4.1-8.6,8.6-11.6c4.5-3,9.5-4.5,15-4.5c5.5,0,10.4,1.5,14.7,4.5c4.2,3,7.2,7.1,8.9,12.2l105.4,376.2l111.1-390.3
		c3.4-11.1,11.5-16.7,24.3-16.7C1491.7,23.4,1497,25.7,1500.8,30.2z"/>
	<path class="st0" d="M1737.6,548.2c-43.1,0-82-9.5-115.7-28.1c-34.2-18.9-59.1-45-74.3-77.5c-2.9-5.4-4.4-11.4-4.4-18
		c0-10.8,4.2-20.4,12.2-27.7c7.7-7,17.6-10.5,29.6-10.5c8.3,0,16.1,2.3,23.3,6.7c7.3,4.6,12.8,11,16.3,19.1
		c8.2,15.9,21.7,28.6,41.3,38.7c20.2,10.5,44.4,15.8,71.8,15.8c30.8,0,55.7-7.3,73.8-21.7c17.2-13.6,25.5-32.5,25.5-57.6
		c0-22.2-7.9-40.4-24.3-55.6c-17.1-15.9-43.9-26.3-79.7-30.9c-52.6-6.4-94.8-23.4-125.6-50.6c-32-28.3-48.2-63.6-48.2-104.9
		c0-29.2,8-55.3,23.9-77.6c15.6-22,37.3-39,64.6-50.7c26.5-11.3,56.8-17.1,90-17.1c36.5,0,69.2,8.3,97.3,24.8
		c27.8,16.3,50,37.9,65.9,64.1c4.6,7.4,7,15.6,7,24.4c0,14-7,26-19.6,33.8l-0.6,0.4l-0.7,0.3c-5.8,2.9-12.2,4.4-19,4.4
		c-7.7,0-15-2-21.6-5.8c-6.4-3.7-11.7-9-15.8-15.7c-20.7-32.6-51.4-48.7-93.6-49.1c-30.6,0-54.8,6.3-71.8,18.6
		c-15.5,11.3-23,27.1-23,48.5c0,14.9,0,60.2,106,74.3l0.2,0c56.1,8.2,98.9,26.1,127.3,53.3c29.3,28.1,44.2,65.3,44.2,110.6
		c0,33.2-8.3,62.5-24.5,87.1c-16.2,24.4-38.6,43.2-66.5,55.8C1801.7,542,1771,548.2,1737.6,548.2L1737.6,548.2z"/>
	<path class="st0" d="M1630.1,505.2c-31.3-17.3-53.7-40.8-67.4-70.3c-1.7-3-2.6-6.4-2.6-10.3c0-6,2.2-11,6.7-15.1
		c4.5-4.1,10.5-6.1,18.2-6.1c5.1,0,9.9,1.4,14.4,4.2c4.5,2.8,7.8,6.7,9.9,11.9c9.8,19.3,26.1,34.8,48.8,46.5
		c22.8,11.8,49.3,17.7,79.5,17.7c34.9,0,63-8.5,84.3-25.4c21.3-16.9,31.9-40.5,31.9-70.9c0-27-9.9-49.6-29.7-68
		c-19.8-18.4-49.5-30.2-89.1-35.3c-49.4-6-88.2-21.5-116.5-46.5c-28.3-25-42.5-55.7-42.5-92.1c0-25.7,6.9-48.3,20.8-67.7
		c13.8-19.5,33-34.5,57.5-44.9c24.5-10.5,52.2-15.7,83.3-15.7c33.6,0,63.2,7.5,88.8,22.5c25.5,15,45.5,34.5,60,58.4
		c3,4.7,4.5,9.9,4.5,15.4c0,8.1-3.8,14.5-11.5,19.3c-3.4,1.7-7.2,2.6-11.5,2.6c-4.7,0-9.1-1.2-13.1-3.5c-4-2.4-7.3-5.7-9.9-10
		c-23.8-37.7-59.8-56.7-107.9-57.1c-34.5,0-61.7,7.3-81.7,21.8c-20,14.6-30,35.3-30,62.3c0,50.1,40.2,80.5,120.7,91.2
		c52.8,7.7,92.2,24,118.1,48.8c26,24.8,38.9,57.6,38.9,98.2c0,30-7.2,55.8-21.7,77.7c-14.5,21.8-34.3,38.4-59.4,49.8
		c-25.1,11.3-53.2,17-84.3,17C1697.3,531.2,1661.4,522.6,1630.1,505.2z"/>
</g>
</svg>
